<?xml version="1.0" encoding="utf-8"?><svg xmlns="http://www.w3.org/2000/svg" xmlns:xlink="http://www.w3.org/1999/xlink"><symbol fill="none" viewBox="0 0 9 9" id="arrow" xmlns="http://www.w3.org/2000/svg"><path fill-rule="evenodd" clip-rule="evenodd" d="M.146 8.354a.5.5 0 0 1 0-.707L6.793 1H2.5a.5.5 0 0 1 0-1H8a.5.5 0 0 1 .5.5V6a.5.5 0 0 1-1 0V1.707L.854 8.354a.5.5 0 0 1-.708 0Z" fill="#fff"/></symbol><symbol fill="none" viewBox="0 0 26 18" id="burger" xmlns="http://www.w3.org/2000/svg"><rect width="26" height="2" rx="1" fill="#fff"/><rect y="8" width="26" height="2" rx="1" fill="#fff"/><rect y="16" width="26" height="2" rx="1" fill="#fff"/></symbol><symbol fill="none" viewBox="0 0 13 14" id="codesandbox" xmlns="http://www.w3.org/2000/svg"><path fill-rule="evenodd" clip-rule="evenodd" d="M6.711.047a.5.5 0 0 0-.422 0l-6 2.8A.5.5 0 0 0 0 3.3v6.9a.5.5 0 0 0 .289.453l6 2.8a.5.5 0 0 0 .422 0l6-2.8A.5.5 0 0 0 13 10.2V3.3a.5.5 0 0 0-.289-.453l-6-2.8ZM6.5 2.407 4.98 1.76l1.52-.71 1.52.71-1.52.646Zm.196 1.003 2.542-1.08 2.034.949L6.5 5.307 1.728 3.279l2.034-.95L6.304 3.41a.5.5 0 0 0 .392 0ZM7 6.18l5-2.124V7.18l-1.918.882a1 1 0 0 0-.582.908v2.078L7 12.215V6.18Zm3.5 4.402 1.5-.7V8.28l-1.5.69v1.612ZM6 6.18v6.034l-2.498-1.166V8.97a1 1 0 0 0-.582-.908L1 7.179V4.056L6 6.18Zm-5 3.7 1.502.702V8.97L1 8.28v1.602Z" fill="#fff"/></symbol><symbol fill="none" viewBox="0 0 9 13" id="figma" xmlns="http://www.w3.org/2000/svg"><path fill-rule="evenodd" clip-rule="evenodd" d="M3.95 1H2.475a1.475 1.475 0 0 0 0 2.95H3.95V1Zm0-1h2.475a2.475 2.475 0 0 1 1.492 4.45A2.475 2.475 0 0 1 4.95 8.413V10.375A2.475 2.475 0 1 1 .983 8.4 2.471 2.471 0 0 1 0 6.425c0-.807.386-1.523.983-1.975A2.475 2.475 0 0 1 2.475 0H3.95Zm1 1v2.95h1.475a1.475 1.475 0 1 0 0-2.95H4.95ZM2.475 7.9H3.95V4.95H2.475a1.475 1.475 0 0 0-.006 2.95h.006ZM1 10.375c0-.813.657-1.472 1.47-1.475h1.48v1.475a1.475 1.475 0 0 1-2.95 0Zm3.95-3.953a1.475 1.475 0 1 1 0 .006v-.006Z" fill="currentColor"/></symbol><symbol fill="none" viewBox="0 0 9 13" id="framer" xmlns="http://www.w3.org/2000/svg"><path fill-rule="evenodd" clip-rule="evenodd" d="M.383.298A.5.5 0 0 1 .84 0H8.5a.5.5 0 0 1 .5.5v4.003a.5.5 0 0 1-.5.5H5.635L8.53 8.165a.5.5 0 0 1-.369.838H5v3.5a.5.5 0 0 1-.854.353l-4-4A.5.5 0 0 1 0 8.503v-4a.5.5 0 0 1 .5-.5h2.865L.471.837A.5.5 0 0 1 .383.298ZM4.72 4.003 1.975 1H8v3.003H4.72Zm-.44 1H1v3h6.025l-2.745-3Zm-2.573 4L4 11.296V9.003H1.707Z" fill="currentColor"/></symbol><symbol fill="none" viewBox="0 0 14 13" id="github" xmlns="http://www.w3.org/2000/svg"><path fill-rule="evenodd" clip-rule="evenodd" d="M6.65 0a6.65 6.65 0 0 0-2.102 12.96c.332.061.454-.144.454-.32 0-.159-.006-.577-.01-1.131-1.849.401-2.24-.892-2.24-.892-.302-.768-.738-.973-.738-.973-.604-.412.046-.404.046-.404.667.047 1.019.685 1.019.685.593 1.017 1.556.723 1.935.553.06-.43.232-.723.422-.889-1.477-.168-3.029-.738-3.029-3.287 0-.726.26-1.319.685-1.784-.069-.168-.297-.844.065-1.76 0 0 .558-.179 1.828.681.53-.147 1.1-.22 1.665-.223a6.394 6.394 0 0 1 1.665.223c1.27-.86 1.827-.68 1.827-.68.363.915.135 1.59.066 1.759.427.465.684 1.058.684 1.784 0 2.555-1.555 3.117-3.036 3.282.238.205.45.611.45 1.232 0 .888-.007 1.605-.007 1.823 0 .179.12.386.457.32A6.652 6.652 0 0 0 6.649 0Z" fill="#223"/></symbol><symbol fill="none" viewBox="0 0 15 15" id="globe" xmlns="http://www.w3.org/2000/svg"><g clip-path="url(#ga)" fill-rule="evenodd" clip-rule="evenodd" fill="currentColor"><path d="M7.5 1.8a5.7 5.7 0 1 0 0 11.4 5.7 5.7 0 0 0 0-11.4ZM.9 7.5a6.6 6.6 0 1 1 13.2 0 6.6 6.6 0 0 1-13.2 0Z"/><path d="M13.5 7.9h-12v-.8h12v.8Z"/><path d="M7.1 13.5v-12h.8v12h-.8Zm3.275-6c0-2.173-.781-4.322-2.313-5.743l.476-.514c1.702 1.58 2.537 3.93 2.537 6.257 0 2.327-.835 4.678-2.537 6.257l-.476-.514c1.532-1.42 2.313-3.57 2.313-5.743ZM4 7.5c0-2.324.808-4.673 2.458-6.253l.484.506C5.46 3.173 4.7 5.323 4.7 7.5c0 2.176.759 4.327 2.242 5.747l-.484.506C4.808 12.173 4 9.823 4 7.5Z"/><path d="M7.5 3.958c2.17 0 4.376.401 5.87 1.236a.35.35 0 1 1-.34.612c-1.35-.754-3.422-1.148-5.53-1.148s-4.18.394-5.529 1.148a.35.35 0 1 1-.341-.612c1.495-.835 3.7-1.236 5.87-1.236Zm0 6.892c2.17 0 4.376-.401 5.87-1.236a.35.35 0 1 0-.34-.612c-1.35.754-3.422 1.148-5.53 1.848-2.108 0-4.18-1.094-5.529-1.848a.35.35 0 1 0-.341.611c1.495.836 3.7 1.237 5.87 1.237Z"/></g><defs><clipPath id="ga"><path fill="#fff" d="M0 0h15v15H0z"/></clipPath></defs></symbol><symbol viewBox="0 0 13 13" id="hashtag" xmlns="http://www.w3.org/2000/svg"><path fill-rule="evenodd" clip-rule="evenodd" d="M10 .5a.5.5 0 0 0-1 0V3H4V.5a.5.5 0 0 0-1 0V3H.5a.5.5 0 0 0 0 1H3v5H.5a.5.5 0 0 0 0 1H3v2.5a.5.5 0 0 0 1 0V10h5v2.5a.5.5 0 0 0 1 0V10h2.5a.5.5 0 0 0 0-1H10V4h2.5a.5.5 0 0 0 0-1H10V.5ZM9 9V4H4v5h5Z" fill="currentColor"/></symbol><symbol viewBox="0 0 15 10" id="letters" xmlns="http://www.w3.org/2000/svg"><path fill-rule="evenodd" clip-rule="evenodd" d="M3.69 0a.5.5 0 0 1 .467.32l3.21 8.32a.5.5 0 0 1-.933.36L5.383 6.275H2.01L.967 9a.5.5 0 0 1-.934-.358l3.19-8.32A.5.5 0 0 1 3.69 0Zm.002 1.893 1.363 3.532H2.337l1.355-3.532Zm7.207.564c-1.64 0-2.89 1.479-2.89 3.403 0 2.024 1.35 3.402 2.89 3.402a3.06 3.06 0 0 0 2.255-.99v.508a.45.45 0 1 0 .9 0V2.97a.45.45 0 0 0-.9 0v.503A3.01 3.01 0 0 0 10.9 2.457Zm2.255 4.591V4.552c-.39-.721-1.213-1.244-2.067-1.244-.978 0-2.052.908-2.052 2.552 0 1.543.974 2.551 2.052 2.551.883 0 1.685-.666 2.067-1.363Z" fill="currentColor"/></symbol><symbol fill="none" viewBox="0 0 13 13" id="modulz" xmlns="http://www.w3.org/2000/svg"><path fill-rule="evenodd" clip-rule="evenodd" d="M6.26 2.167 3.37 4.333V0l2.89 2.167ZM0 7.222l2.889-2.166L0 2.889v4.333ZM0 13l2.889-2.167L0 8.667V13Zm6.74-5.778 2.89-2.166-2.89-2.167v4.333ZM13 2.167l-2.889 2.166V0L13 2.167Zm-2.889 7.944L13 7.944l-2.889-2.166v4.333Zm-7.222 0L0 7.944l2.889-2.166v4.333Zm.481-5.055 2.89 2.166V2.89L3.37 5.056Zm-.481-.723L0 2.167 2.889 0v4.333ZM6.74 2.167 9.63 4.333V0L6.74 2.167ZM13 7.222l-2.889-2.166L13 2.889v4.333Zm-2.889 3.611L13 13V8.667l-2.889 2.166Z" fill="currentColor"/></symbol><symbol fill="none" viewBox="0 0 13 13" id="pencil" xmlns="http://www.w3.org/2000/svg"><path fill-rule="evenodd" clip-rule="evenodd" d="M11.9.4a.4.4 0 0 0-.8 0V1h-.6a.4.4 0 0 0 0 .8h.6v.6a.4.4 0 0 0 .8 0v-.6h.6a.4.4 0 0 0 0-.8h-.6V.4ZM9.854 3.046a.5.5 0 0 1 0 .708l-1 1a.5.5 0 1 1-.707-.708l1-1a.5.5 0 0 1 .707 0Zm-2 2a.5.5 0 0 1 0 .708l-7 7a.5.5 0 1 1-.708-.708l7-7a.5.5 0 0 1 .708 0ZM11.5 5c.22 0 .4.18.4.4V6h.6a.4.4 0 0 1 0 .8h-.6v.6a.4.4 0 0 1-.8 0v-.6h-.6a.4.4 0 0 1 0-.8h.6v-.6c0-.22.18-.4.4-.4ZM6.9.4a.4.4 0 0 0-.8 0V1h-.6a.4.4 0 1 0 0 .8h.6v.6a.4.4 0 1 0 .8 0v-.6h.6a.4.4 0 0 0 0-.8h-.6V.4Z" fill="currentColor"/></symbol><symbol fill="none" viewBox="0 0 27 33" id="portier" xmlns="http://www.w3.org/2000/svg"><path fill-rule="evenodd" clip-rule="evenodd" d="M0 10.267c0 7.283 5.842 10.266 11.733 10.266V30.8a1.467 1.467 0 0 0 2.934 0V3.227H17.6V30.8a1.467 1.467 0 0 0 2.933 0V3.227h4.4a1.613 1.613 0 1 0 0-3.227H11.733C5.843 0 0 2.983 0 10.267Z" fill="#fff"/></symbol><symbol fill="none" viewBox="0 0 15 15" id="ruler" xmlns="http://www.w3.org/2000/svg"><path fill-rule="evenodd" clip-rule="evenodd" d="M.5 0a.5.5 0 0 0-.5.5v14a.5.5 0 0 0 .5.5h4a.5.5 0 0 0 .5-.5V5h9.5a.5.5 0 0 0 .5-.5v-4a.5.5 0 0 0-.5-.5H.5ZM1 4.075V1h3.075v3.075H1Zm0 .85V14h3v-1.075H2.75a.425.425 0 1 1 0-.85H4v-1.15H2.25a.425.425 0 0 1 0-.85H4v-1.15H2.75a.425.425 0 1 1 0-.85H4v-1.15H2.75a.425.425 0 1 1 0-.85H4v-1.15H1ZM4.925 4h1.15V2.75a.425.425 0 0 1 .85 0V4h1.15V2.75a.425.425 0 0 1 .85 0V4h1.15V2.25a.425.425 0 1 1 .85 0V4h1.15V2.75a.425.425 0 0 1 .85 0V4H14V1H4.925v3Z" fill="currentColor"/></symbol><symbol fill="none" viewBox="0 0 11 11" id="search" xmlns="http://www.w3.org/2000/svg"><path fill-rule="evenodd" clip-rule="evenodd" d="M8 4.5a3.5 3.5 0 1 1-7 0 3.5 3.5 0 0 1 7 0Zm-.691 3.516a4.5 4.5 0 1 1 .707-.707l2.838 2.837a.5.5 0 0 1-.708.708L7.31 8.016ZM2.25 4.5a.5.5 0 0 1 .5-.5H4V2.75a.5.5 0 0 1 1 0V4h1.25a.5.5 0 0 1 0 1H5v1.25a.5.5 0 0 1-1 0V5H2.75a.5.5 0 0 1-.5-.5Z" fill="currentColor"/></symbol><symbol fill="none" viewBox="0 0 14 14" id="smile" xmlns="http://www.w3.org/2000/svg"><path fill-rule="evenodd" clip-rule="evenodd" d="M6.623 0a6.623 6.623 0 1 0 0 13.246A6.623 6.623 0 0 0 6.623 0ZM.95 6.623a5.673 5.673 0 1 1 11.346 0 5.673 5.673 0 0 1-11.346 0Zm3.21 1.714a.5.5 0 1 0-.82.572 3.996 3.996 0 0 0 3.283 1.714c1.36 0 2.56-.679 3.283-1.714a.5.5 0 0 0-.82-.572 2.996 2.996 0 0 1-2.463 1.286A2.996 2.996 0 0 1 4.16 8.337Zm.338-2.364a.875.875 0 1 0 0-1.75.875.875 0 0 0 0 1.75Zm5.125-.875a.875.875 0 1 1-1.75 0 .875.875 0 0 1 1.75 0Z" fill="currentColor"/></symbol><symbol viewBox="0 0 13 13" id="square" xmlns="http://www.w3.org/2000/svg"><path fill-rule="evenodd" clip-rule="evenodd" d="M.5 0a.5.5 0 0 0-.5.5v2a.5.5 0 0 0 1 0V1h1.5a.5.5 0 0 0 0-1h-2ZM5 0a.5.5 0 0 0 0 1h3a.5.5 0 0 0 0-1H5Zm-.5 12.5A.5.5 0 0 1 5 12h3a.5.5 0 1 1 0 1H5a.5.5 0 0 1-.5-.5ZM1 5a.5.5 0 0 0-1 0v3a.5.5 0 0 0 1 0V5Zm11.5-.5a.5.5 0 0 1 .5.5v3a.5.5 0 0 1-1 0V5a.5.5 0 0 1 .5-.5Zm-2-4.5a.5.5 0 1 0 0 1H12v1.5a.5.5 0 0 0 1 0v-2a.5.5 0 0 0-.501-.5H10.5ZM.5 10a.5.5 0 0 1 .5.5V12h1.5a.5.5 0 1 1 0 1h-2a.5.5 0 0 1-.5-.5v-2a.5.5 0 0 1 .5-.5Zm12.5.5a.5.5 0 0 0-1 0V12h-1.5a.5.5 0 1 0 0 1h2a.5.5 0 0 0 .5-.5v-2Z" fill="currentColor"/></symbol><symbol fill="none" viewBox="0 0 14 14" id="stitches" xmlns="http://www.w3.org/2000/svg"><path fill-rule="evenodd" clip-rule="evenodd" d="M1 6.65c0-.287.021-.569.063-.844l7.65-4.417c.3.117.587.26.859.424L2.92 5.653a.447.447 0 0 0-.234.374.447.447 0 0 0 .196.394l3.592 2.567-3.453 1.994A5.638 5.638 0 0 1 1 6.65Zm6.518 2.775a.415.415 0 0 0 .025-.014l1.448-.836a.448.448 0 0 0 .018-.01l1.451-.838a.45.45 0 0 0 .052-.756L6.978 4.35l3.388-1.957a5.637 5.637 0 0 1 1.849 5.24L4.719 11.96a5.623 5.623 0 0 1-.882-.41l3.681-2.126Zm-.036-8.364-6.09 3.515a5.652 5.652 0 0 1 6.09-3.515ZM5.997 12.263a5.652 5.652 0 0 0 5.842-3.373l-5.842 3.373ZM6.65 0a6.65 6.65 0 1 0 0 13.3 6.65 6.65 0 0 0 0-13.3Z" fill="currentColor"/></symbol><symbol fill="none" viewBox="0 0 14 12" id="twitter" xmlns="http://www.w3.org/2000/svg"><path fill-rule="evenodd" clip-rule="evenodd" d="M6.238 3.128C6.238 1.4 7.638 0 9.365 0c1.014 0 1.823.48 2.365 1.175a5.246 5.246 0 0 0 1.626-.628 2.634 2.634 0 0 1-1.148 1.45l.002.002a5.26 5.26 0 0 0 1.5-.412l-.001.002c-.337.504-.76.95-1.248 1.313.026.176.04.354.04.53 0 3.687-2.809 7.974-7.975 7.974a7.93 7.93 0 0 1-4.296-1.26.5.5 0 0 1-.108-.748.45.45 0 0 1 .438-.214c.916.108 1.83-.004 2.637-.356a3.086 3.086 0 0 1-1.69-1.877.45.45 0 0 1 .103-.447A3.07 3.07 0 0 1 .565 4.193v-.034a.45.45 0 0 1 .365-.442 3.068 3.068 0 0 1-.344-1.416c0-.468.003-1.058.332-1.589a.45.45 0 0 1 .323-.209.5.5 0 0 1 .538.161 6.964 6.964 0 0 0 4.46 2.507v-.043Zm-1.712 7.278a6.936 6.936 0 0 1-2.249-.372 5.317 5.317 0 0 0 2.39-1.042.45.45 0 0 0-.27-.805A2.174 2.174 0 0 1 2.684 7.3c.19-.016.376-.048.556-.097a.45.45 0 0 0-.028-.876 2.18 2.18 0 0 1-1.644-1.474c.2.049.409.078.623.085a.45.45 0 0 0 .265-.824A2.177 2.177 0 0 1 1.486 2.3c0-.167.003-.317.013-.452A7.95 7.95 0 0 0 6.78 4.225a.5.5 0 0 0 .513-.61A2.127 2.127 0 0 1 9.365 1c1.234-.001 2.136 1.143 2.136 2.431 0 3.257-2.476 6.974-6.975 6.974Z" fill="#fff"/></symbol><symbol fill="none" viewBox="0 0 11 14" id="user" xmlns="http://www.w3.org/2000/svg"><path fill-rule="evenodd" clip-rule="evenodd" d="M5.475 0a3.625 3.625 0 0 0-1.006 7.109c-1.194.145-2.218.567-2.99 1.328C.497 9.404 0 10.845 0 12.725a.475.475 0 1 0 .95 0c0-1.72.453-2.88 1.196-3.612C2.89 8.38 4.002 8 5.475 8s2.585.38 3.33 1.113C9.546 9.846 10 11.005 10 12.725a.475.475 0 1 0 .95 0c0-1.88-.497-3.32-1.48-4.288-.77-.76-1.795-1.183-2.989-1.328A3.627 3.627 0 0 0 5.475 0ZM2.8 3.625a2.675 2.675 0 1 1 5.35 0 2.675 2.675 0 0 1-5.35 0Z" fill="currentColor"/></symbol><symbol fill="none" viewBox="0 0 14 12" id="vercel" xmlns="http://www.w3.org/2000/svg"><path fill-rule="evenodd" clip-rule="evenodd" d="m6.9 0-.577 1.003L.575 11 0 12h13.8l-.575-1-5.748-9.997L6.9 0Zm0 2.006L1.729 11H12.07L6.9 2.006Z" fill="currentColor"/></symbol></svg>