<svg width="9" height="9" viewBox="0 0 9 9" fill="none" xmlns="http://www.w3.org/2000/svg">
<path fill-rule="evenodd" clip-rule="evenodd" d="M0.146453 8.3536C-0.0488175 8.1583 -0.0488175 7.8417 0.146453 7.6465L6.7929 1H2.5C2.22386 1 2 0.77614 2 0.5C2 0.22386 2.22386 0 2.5 0H8C8.1326 0 8.2598 0.05268 8.3536 0.14645C8.4473 0.24022 8.5 0.36739 8.5 0.5V6.00001C8.5 6.27615 8.2761 6.50001 8 6.50001C7.7239 6.50001 7.5 6.27615 7.5 6.00001V1.70711L0.853552 8.3536C0.658292 8.5488 0.341713 8.5488 0.146453 8.3536Z" fill="white"/>
</svg>
