<svg width="13" height="14" viewBox="0 0 13 14" fill="none" xmlns="http://www.w3.org/2000/svg">
<path fill-rule="evenodd" clip-rule="evenodd" d="M6.71145 0.0469088C6.57742 -0.0156363 6.42258 -0.0156363 6.28856 0.0469088L0.288557 2.84691C0.112517 2.92906 0 3.10574 0 3.3V10.2C0 10.3943 0.112517 10.5709 0.288557 10.6531L6.28856 13.4531C6.42258 13.5156 6.57742 13.5156 6.71145 13.4531L12.7114 10.6531C12.8875 10.5709 13 10.3943 13 10.2V3.3C13 3.10574 12.8875 2.92906 12.7114 2.84691L6.71145 0.0469088ZM6.5 2.40675L4.9804 1.76092L6.5 1.05177L8.0196 1.76092L6.5 2.40675ZM6.69557 3.41019L9.23821 2.32959L11.2719 3.27866L6.5 5.30672L1.72809 3.27866L3.76182 2.32959L6.30443 3.41019C6.4294 3.46331 6.5706 3.46331 6.69557 3.41019ZM7 6.18079L12 4.05579V7.17967L10.0821 8.06191C9.72731 8.2251 9.50001 8.57989 9.50001 8.9704V11.0482L7 12.2149V6.18079ZM10.5 10.5816L12 9.88161V8.2804L10.5 8.9704V10.5816ZM6 6.18079V12.2149L3.50232 11.0493V8.97037C3.50232 8.57986 3.275 8.22507 2.92023 8.06188L0.999997 7.17857V4.05579L6 6.18079ZM0.999997 9.88161L2.50232 10.5826V8.97037L0.999997 8.2793V9.88161Z" fill="white"/>
</svg>
