<svg width="9" height="13" viewBox="0 0 9 13" fill="none" xmlns="http://www.w3.org/2000/svg">
    <path fill-rule="evenodd" clip-rule="evenodd" d="M3.95 1H2.475C1.66038 1 1 1.66038 1 2.475C1 3.28962 1.66038 3.95 2.475 3.95H3.95V1ZM3.95 0H4.95H6.425C7.79195 0 8.89995 1.10809 8.89995 2.475C8.89995 3.28164 8.51415 3.99816 7.91685 4.45C8.51415 4.90185 8.89995 5.61837 8.89995 6.42501C8.89995 7.79191 7.79195 8.90001 6.425 8.90001C5.87231 8.90001 5.36193 8.71885 4.95 8.41267V8.90001V10.375C4.95 11.7419 3.8419 12.85 2.475 12.85C1.10809 12.85 0 11.7419 0 10.375C0 9.56831 0.38588 8.85185 0.98312 8.4C0.38588 7.94815 0 7.23164 0 6.42501C0 5.61837 0.38589 4.90185 0.98314 4.45001C0.38589 3.99816 0 3.28164 0 2.475C0 1.10809 1.10809 0 2.475 0H3.95ZM4.95 1V3.95H6.425C7.23965 3.95 7.89995 3.28962 7.89995 2.475C7.89995 1.66038 7.23965 1 6.425 1H4.95ZM2.475 7.89999H3.95V6.42881V6.42501V6.42121V4.95001H2.475C1.66038 4.95001 1 5.61039 1 6.42501C1 7.23768 1.65722 7.89685 2.46915 7.9L2.475 7.89999ZM1 10.375C1 9.56231 1.65722 8.90316 2.46915 8.9L2.475 8.90001H3.95V10.375C3.95 11.1896 3.28962 11.85 2.475 11.85C1.66038 11.85 1 11.1896 1 10.375ZM4.95 6.42207C4.95159 5.6088 5.61136 4.95001 6.425 4.95001C7.23965 4.95001 7.89995 5.61039 7.89995 6.42501C7.89995 7.23963 7.23965 7.90001 6.425 7.90001C5.61136 7.90001 4.95159 7.24122 4.95 6.42795V6.42207Z" fill="currentColor"/>
</svg>