<svg width="9" height="13" viewBox="0 0 9 13" xmlns="http://www.w3.org/2000/svg">
    <path fill-rule="evenodd" clip-rule="evenodd" d="M0.3825 0.298386C0.46241 0.117036 0.64188 0 0.84005 0H8.5C8.7761 0 9 0.223856 9 0.499996V4.50272C9 4.77886 8.7761 5.00272 8.5 5.00272H5.63521L8.5288 8.16519C8.6626 8.31142 8.6974 8.52287 8.6175 8.70426C8.5376 8.88565 8.3582 9.00272 8.16 9.00272H5V12.5027C5 12.7049 4.87818 12.8872 4.69134 12.9646C4.5045 13.042 4.28945 12.9993 4.14645 12.8563L0.14645 8.85627C0.05268 8.76251 0 8.63533 0 8.50272V4.50272C0 4.22658 0.22386 4.00272 0.5 4.00272H3.36531L0.47105 0.837396C0.33732 0.691156 0.30259 0.479726 0.3825 0.298386ZM4.72032 4.00272L1.97474 0.999996H8V4.00272H4.72032ZM4.27978 5.00272H1V8.00272H4.5H7.0247L4.27978 5.00272ZM1.70711 9.00272L4 11.2956V9.00272H1.70711Z" fill="white"/>
</svg>