<svg width="14" height="13" viewBox="0 0 14 13" fill="none" xmlns="http://www.w3.org/2000/svg">
<path fill-rule="evenodd" clip-rule="evenodd" d="M6.64938 0C2.97769 0 0 2.97729 0 6.65022C0 9.58789 1.90525 12.0806 4.54777 12.9604C4.88049 13.0212 5.00173 12.8158 5.00173 12.6395C5.00173 12.4815 4.99602 12.0635 4.99275 11.5087C3.14303 11.9104 2.75275 10.6171 2.75275 10.6171C2.45024 9.84879 2.01425 9.64419 2.01425 9.64419C1.41046 9.23189 2.05997 9.24009 2.05997 9.24009C2.72744 9.28699 3.07852 9.92549 3.07852 9.92549C3.67169 10.9416 4.63514 10.6481 5.01398 10.4779C5.0744 10.0484 5.24627 9.75529 5.4361 9.58909C3.9595 9.42089 2.40697 8.85062 2.40697 6.3024C2.40697 5.57614 2.6662 4.98297 3.09159 4.51799C3.02301 4.34979 2.7948 3.67374 3.15691 2.75806C3.15691 2.75806 3.71496 2.57925 4.9854 3.4394C5.5157 3.29203 6.08479 3.21855 6.6502 3.21569C7.2152 3.21855 7.78388 3.29203 8.315 3.4394C9.58462 2.57925 10.1418 2.75806 10.1418 2.75806C10.5048 3.67374 10.2766 4.34979 10.2084 4.51799C10.6346 4.98297 10.8918 5.57614 10.8918 6.3024C10.8918 8.85715 9.33682 9.41929 7.85573 9.58379C8.09414 9.78919 8.30683 10.195 8.30683 10.8155C8.30683 11.7042 8.29867 12.4215 8.29867 12.6395C8.29867 12.8175 8.41869 13.0245 8.7559 12.9595C11.3964 12.0782 13.3 9.58749 13.3 6.65022C13.3 2.97729 10.3223 0 6.64938 0Z" fill="#222233"/>
</svg>
