<svg width="15" height="10" viewBox="0 0 15 10" xmlns="http://www.w3.org/2000/svg">
    <path fill-rule="evenodd" clip-rule="evenodd" d="M3.68979 2.59589e-07C3.89667 -0.00020974 4.08232 0.12701 4.15679 0.32003L7.36662 8.64C7.46602 8.8977 7.33774 9.1871 7.0801 9.2865C6.82247 9.3859 6.53304 9.2576 6.43365 9L5.3825 6.27537H2.01133L0.966992 8.999C0.868128 9.2568 0.578964 9.3857 0.321126 9.2869C0.0632879 9.188 -0.0655864 8.8988 0.0332774 8.641L3.22344 0.32099C3.29751 0.12782 3.4829 0.00021026 3.68979 2.59589e-07ZM3.69174 1.89284L5.05458 5.42537H2.33724L3.69174 1.89284ZM10.8989 2.45703C9.25818 2.45703 8.00915 3.93569 8.00915 5.85972C8.00915 7.8837 9.35818 9.2624 10.8989 9.2624C11.7214 9.2624 12.5744 8.9192 13.1543 8.2719V8.78C13.1543 9.0285 13.3557 9.23 13.6043 9.23C13.8528 9.23 14.0543 9.0285 14.0543 8.78V2.97C14.0543 2.72147 13.8528 2.52 13.6043 2.52C13.3557 2.52 13.1543 2.72147 13.1543 2.97V3.47317C12.6054 2.85095 11.7924 2.45703 10.8989 2.45703ZM13.1543 7.04823V4.55195C12.7639 3.83101 11.9414 3.30757 11.0868 3.30757C10.1088 3.30757 9.03503 4.21581 9.03503 5.85955C9.03503 7.4033 10.0088 8.4115 11.0868 8.4115C11.9701 8.4115 12.7719 7.7452 13.1543 7.04823Z" fill="currentColor"/>
</svg>