<svg width="13" height="13" viewBox="0 0 13 13" fill="none" xmlns="http://www.w3.org/2000/svg">
<path fill-rule="evenodd" clip-rule="evenodd" d="M6.25925 2.16667L3.37036 4.33333V0L6.25925 2.16667ZM0 7.22222L2.88889 5.05555L0 2.88889V7.22222ZM0 13L2.88889 10.8333L0 8.66666V13ZM6.74072 7.22222L9.6296 5.05555L6.74072 2.88889V7.22222ZM13 2.16667L10.1111 4.33333V0L13 2.16667ZM10.1111 10.1111L13 7.94444L10.1111 5.77777V10.1111ZM2.88889 10.1111L0 7.94444L2.88889 5.77777V10.1111ZM3.37036 5.05555L6.25925 7.22222V2.88889L3.37036 5.05555ZM2.88889 4.33333L0 2.16667L2.88889 0V4.33333ZM6.74072 2.16667L9.6296 4.33333V0L6.74072 2.16667ZM13 7.22222L10.1111 5.05555L13 2.88889V7.22222ZM10.1111 10.8333L13 13V8.66666L10.1111 10.8333Z" fill="white"/>
</svg>
