<svg width="13" height="13" viewBox="0 0 13 13" fill="none" xmlns="http://www.w3.org/2000/svg">
    <path fill-rule="evenodd" clip-rule="evenodd" d="M11.9 0.4C11.9 0.179086 11.7209 0 11.5 0C11.2791 0 11.1 0.179086 11.1 0.4V1H10.5C10.2791 1 10.1 1.17908 10.1 1.4C10.1 1.62091 10.2791 1.8 10.5 1.8H11.1V2.4C11.1 2.62091 11.2791 2.8 11.5 2.8C11.7209 2.8 11.9 2.62091 11.9 2.4V1.8H12.5C12.7209 1.8 12.9 1.62091 12.9 1.4C12.9 1.17908 12.7209 1 12.5 1H11.9V0.4ZM9.8536 3.04644C10.0488 3.2417 10.0488 3.55828 9.8536 3.75355L8.8536 4.75355C8.6583 4.94881 8.3417 4.94881 8.1465 4.75355C7.9512 4.55829 7.9512 4.24171 8.1465 4.04644L9.1464 3.04645C9.3417 2.85118 9.6583 2.85118 9.8536 3.04644ZM7.85357 5.04644C8.0488 5.2417 8.0488 5.55829 7.85357 5.75355L0.853552 12.7535C0.658292 12.9488 0.341713 12.9488 0.146453 12.7535C-0.0488175 12.5583 -0.0488175 12.2417 0.146453 12.0464L7.14646 5.04644C7.34172 4.85118 7.65831 4.85118 7.85357 5.04644ZM11.5 5C11.7209 5 11.9 5.17908 11.9 5.4V6H12.5C12.7209 6 12.9 6.17908 12.9 6.4C12.9 6.62091 12.7209 6.8 12.5 6.8H11.9V7.4C11.9 7.62091 11.7209 7.8 11.5 7.8C11.2791 7.8 11.1 7.62091 11.1 7.4V6.8H10.5C10.2791 6.8 10.1 6.62091 10.1 6.4C10.1 6.17908 10.2791 6 10.5 6H11.1V5.4C11.1 5.17908 11.2791 5 11.5 5ZM6.90002 0.4C6.90002 0.179086 6.72093 0 6.50002 0C6.2791 0 6.10002 0.179086 6.10002 0.4V1H5.50002C5.2791 1 5.10002 1.17908 5.10002 1.4C5.10002 1.62091 5.2791 1.8 5.50002 1.8H6.10002V2.4C6.10002 2.62091 6.2791 2.8 6.50002 2.8C6.72093 2.8 6.90002 2.62091 6.90002 2.4V1.8H7.50002C7.72093 1.8 7.90002 1.62091 7.90002 1.4C7.90002 1.17908 7.72093 1 7.50002 1H6.90002V0.4Z" fill="currentColor"/>
</svg>