<svg width="27" height="33" viewBox="0 0 27 33" fill="none" xmlns="http://www.w3.org/2000/svg">
<path fill-rule="evenodd" clip-rule="evenodd" d="M0 10.2667C0 17.5501 5.84229 20.5333 11.7333 20.5333V30.8C11.7333 31.6099 12.39 32.2667 13.2 32.2667C14.01 32.2667 14.6667 31.6099 14.6667 30.8V20.5333V3.22667H17.6V30.8C17.6 31.6099 18.2567 32.2667 19.0667 32.2667C19.8767 32.2667 20.5333 31.6099 20.5333 30.8V3.22667H24.9333C25.8245 3.22667 26.5467 2.50436 26.5467 1.61333C26.5467 0.722304 25.8245 0 24.9333 0H19.0667H14.6667H13.2H11.7333C5.84229 0 0 2.9832 0 10.2667Z" fill="white"/>
</svg>
