<svg width="11" height="11" viewBox="0 0 11 11" fill="none" xmlns="http://www.w3.org/2000/svg">
    <path fill-rule="evenodd" clip-rule="evenodd" d="M8 4.5C8 6.433 6.433 8 4.5 8C2.567 8 1 6.433 1 4.5C1 2.567 2.567 1 4.5 1C6.433 1 8 2.567 8 4.5ZM7.30884 8.0159C6.53901 8.6318 5.56251 9 4.5 9C2.01472 9 0 6.98528 0 4.5C0 2.01472 2.01472 0 4.5 0C6.98528 0 9 2.01472 9 4.5C9 5.56251 8.6318 6.53901 8.0159 7.30884L10.8536 10.1464C11.0488 10.3417 11.0488 10.6583 10.8536 10.8536C10.6583 11.0488 10.3417 11.0488 10.1464 10.8536L7.30884 8.0159ZM2.25 4.5C2.25 4.22386 2.47386 4 2.75 4H4V2.75C4 2.47386 4.22386 2.25 4.5 2.25C4.77614 2.25 5 2.47386 5 2.75V4H6.25C6.52614 4 6.75 4.22386 6.75 4.5C6.75 4.77614 6.52614 5 6.25 5H5V6.25C5 6.52614 4.77614 6.75 4.5 6.75C4.22386 6.75 4 6.52614 4 6.25V5H2.75C2.47386 5 2.25 4.77614 2.25 4.5Z" fill="currentColor"/>
</svg>