<svg width="14" height="14" viewBox="0 0 14 14" fill="none" xmlns="http://www.w3.org/2000/svg">
    <path fill-rule="evenodd" clip-rule="evenodd" d="M6.62283 0C2.96514 0 0 2.96515 0 6.62283C0 10.2805 2.96514 13.2457 6.62283 13.2457C10.2805 13.2457 13.2456 10.2805 13.2456 6.62283C13.2456 2.96515 10.2805 0 6.62283 0ZM0.950005 6.62283C0.950005 3.48982 3.48981 0.949998 6.62283 0.949998C9.75583 0.949998 12.2956 3.48982 12.2956 6.62283C12.2956 9.75581 9.75583 12.2957 6.62283 12.2957C3.48981 12.2957 0.950005 9.75581 0.950005 6.62283ZM4.16039 8.33706C4.00241 8.11057 3.69075 8.05504 3.46426 8.21302C3.23777 8.371 3.18224 8.68267 3.34021 8.90916C4.06218 9.94421 5.26326 10.6231 6.62296 10.6231C7.98267 10.6231 9.18372 9.94421 9.90572 8.90916C10.0637 8.68267 10.0081 8.371 9.78162 8.21302C9.55522 8.05504 9.24352 8.11057 9.08552 8.33706C8.54255 9.11549 7.64199 9.62311 6.62296 9.62311C5.60392 9.62311 4.70336 9.11549 4.16039 8.33706ZM4.49795 5.97309C4.9812 5.97309 5.37295 5.58126 5.37295 5.09809C5.37295 4.61491 4.9812 4.22309 4.49795 4.22309C4.01471 4.22309 3.62296 4.61491 3.62296 5.09809C3.62296 5.58126 4.01471 5.97309 4.49795 5.97309ZM9.62292 5.09809C9.62292 5.58126 9.23122 5.97309 8.74795 5.97309C8.26471 5.97309 7.87295 5.58126 7.87295 5.09809C7.87295 4.61491 8.26471 4.22309 8.74795 4.22309C9.23122 4.22309 9.62292 4.61491 9.62292 5.09809Z" fill="currentColor"/>
</svg>