<svg width="13" height="13" viewBox="0 0 13 13" xmlns="http://www.w3.org/2000/svg">
    <path fill-rule="evenodd" clip-rule="evenodd" d="M0.499999 0C0.367389 0 0.240209 0.052679 0.146449 0.146449C0.052679 0.240219 0 0.367399 0 0.499999L1.50204e-05 2.5C1.80204e-05 2.77615 0.223879 3 0.500019 3C0.776159 3 1.00002 2.77614 1.00002 2.5L0.999999 0.999999H2.50002C2.77616 0.999999 3.00002 0.776139 3.00002 0.499999C3.00002 0.223859 2.77616 0 2.50002 0H0.499999ZM5 0C4.72386 0 4.5 0.223859 4.5 0.499999C4.5 0.776139 4.72386 0.999999 5 0.999999H8C8.27614 0.999999 8.5 0.776139 8.5 0.499999C8.5 0.223859 8.27614 0 8 0H5ZM4.5 12.5C4.5 12.2238 4.72386 12 5 12H8C8.27614 12 8.5 12.2238 8.5 12.5C8.5 12.7761 8.27614 13 8 13H5C4.72386 13 4.5 12.7761 4.5 12.5ZM0.999999 5C0.999999 4.72386 0.776139 4.5 0.499999 4.5C0.223859 4.5 0 4.72386 0 5V8C0 8.27614 0.223859 8.5 0.499999 8.5C0.776139 8.5 0.999999 8.27614 0.999999 8V5ZM12.5 4.5C12.7761 4.5 13 4.72386 13 5V8C13 8.27614 12.7761 8.5 12.5 8.5C12.2238 8.5 12 8.27614 12 8V5C12 4.72386 12.2238 4.5 12.5 4.5ZM10.5 0C10.2238 0 10 0.223859 10 0.499999C10 0.776139 10.2238 0.999999 10.5 0.999999H11.9999V2.5C11.9999 2.77614 12.2238 3 12.4999 3C12.7761 3 12.9999 2.77614 12.9999 2.5V0.499999C12.9999 0.223859 12.7752 0 12.499 0H10.5ZM0.499999 10C0.776139 10 0.999999 10.2238 0.999999 10.5V12H2.50002C2.77616 12 3.00002 12.2238 3.00002 12.5C3.00002 12.7761 2.77616 13 2.50002 13H0.499999C0.223859 13 0 12.7761 0 12.5V10.5C0 10.2238 0.223859 10 0.499999 10ZM13 10.5C13 10.2238 12.7761 10 12.5 10C12.2238 9.99995 12 10.2238 12 10.4999L11.9991 12H10.5C10.2238 12 10 12.2238 10 12.5C10 12.7761 10.2238 13 10.5 13H12.4999C12.7761 13 12.9999 12.7761 12.9999 12.5L13 10.5Z" fill="#12121C"/>
</svg>