<svg width="14" height="14" viewBox="0 0 14 14" fill="none" xmlns="http://www.w3.org/2000/svg">
<path fill-rule="evenodd" clip-rule="evenodd" d="M1 6.65C1 6.36323 1.02136 6.08145 1.06258 5.80617L8.71376 1.38877C9.01313 1.50629 9.30002 1.64863 9.57192 1.81324L2.92067 5.65334C2.88671 5.67185 2.85484 5.69492 2.82604 5.7224C2.74112 5.8031 2.69247 5.91288 2.68684 6.0266C2.68361 6.09182 2.69453 6.15833 2.72088 6.22139C2.73929 6.26572 2.76492 6.30744 2.79746 6.3446C2.82308 6.37398 2.85202 6.39943 2.88339 6.42071L6.47535 8.98815L3.02234 10.9817C1.78606 9.94532 1 8.38946 1 6.65ZM7.51845 9.42512C7.52684 9.42062 7.53511 9.41593 7.54324 9.41082L8.99093 8.57501C8.99708 8.57165 9.00316 8.56814 9.00917 8.56448L10.4601 7.72679C10.5155 7.69651 10.5654 7.65402 10.6054 7.59997C10.7534 7.40033 10.7116 7.1185 10.512 6.97048L6.97781 4.35019L10.3661 2.39395C11.5513 3.42965 12.3 4.95239 12.3 6.65C12.3 6.98548 12.2707 7.31413 12.2147 7.63355L4.71877 11.9613C4.4114 11.8495 4.11648 11.7118 3.83664 11.5508L7.51845 9.42512ZM7.33151 8.49385L3.96661 6.0887L4.6592 5.68883L7.95606 8.13326L7.33151 8.49385ZM5.50877 5.19834L6.12824 4.84069L9.42512 7.28508L8.80562 7.64277L5.50877 5.19834ZM7.48182 1.0608L1.39265 4.57638C2.21943 2.4819 4.26166 1 6.65 1C6.9326 1 7.21035 1.02074 7.48182 1.0608ZM5.99686 12.2626C6.21116 12.2873 6.4291 12.3 6.65 12.3C8.97462 12.3 10.9713 10.8961 11.8386 8.88992L5.99686 12.2626ZM6.65 0C2.9773 0 0 2.9773 0 6.65C0 10.3227 2.9773 13.3 6.65 13.3C10.3227 13.3 13.3 10.3227 13.3 6.65C13.3 2.9773 10.3227 0 6.65 0Z" fill="#222233"/>
</svg>
