<svg width="14" height="12" viewBox="0 0 14 12" fill="none" xmlns="http://www.w3.org/2000/svg">
<path fill-rule="evenodd" clip-rule="evenodd" d="M6.23836 3.12772C6.23836 1.40027 7.63835 0 9.365 0C10.3786 0 11.188 0.47947 11.7304 1.17528C12.3129 1.0561 12.8607 0.84056 13.3563 0.54651C13.1609 1.15741 12.7474 1.67103 12.2083 1.99606C12.2088 1.99711 12.2092 1.99817 12.2097 1.99922C12.7384 1.93504 13.2414 1.79445 13.7098 1.58689L13.7087 1.58858C13.3717 2.09326 12.9481 2.53879 12.4611 2.90177C12.4873 3.07815 12.5006 3.2557 12.5006 3.43222C12.5006 7.11853 9.6923 11.406 4.52622 11.406C2.94406 11.406 1.47044 10.9424 0.230054 10.1466C-0.00236356 9.99753 -0.0698876 9.68823 0.0792344 9.45583C0.0924044 9.43523 0.106834 9.41603 0.122344 9.39803C0.210824 9.25163 0.379384 9.16233 0.560404 9.18363C1.47566 9.29153 2.39068 9.17993 3.19719 8.82763C2.39726 8.47483 1.77629 7.79118 1.50704 6.95117C1.45859 6.80003 1.49335 6.63454 1.59851 6.51565C1.60216 6.51153 1.60587 6.50749 1.60964 6.50353C0.968915 5.93962 0.564735 5.11351 0.564735 4.19286V4.15902C0.564735 3.99957 0.649114 3.85202 0.786555 3.77117C0.831715 3.7446 0.880374 3.72654 0.930324 3.71701C0.710495 3.29297 0.586164 2.81127 0.586164 2.30101C0.586164 1.83308 0.588844 1.24335 0.918324 0.71224C0.992184 0.59318 1.11258 0.52058 1.2414 0.50338C1.43088 0.4438 1.64587 0.50112 1.77906 0.66445C2.87036 2.00269 4.44566 2.92726 6.23866 3.17104L6.23836 3.12772ZM4.52622 10.406C3.73887 10.406 2.98281 10.2749 2.27748 10.0337C3.13512 9.88523 3.95807 9.54733 4.66718 8.99163C4.81711 8.87413 4.87682 8.67493 4.81626 8.49433C4.7557 8.31377 4.588 8.19086 4.39755 8.1875C3.69468 8.17509 3.07212 7.82859 2.68293 7.29988C2.87328 7.28449 3.05928 7.25182 3.23945 7.2031C3.44103 7.14859 3.57863 6.96257 3.57174 6.75386C3.56485 6.54515 3.41529 6.36861 3.21055 6.3275C2.43194 6.1712 1.80383 5.59907 1.56669 4.85317C1.76755 4.90168 1.97602 4.93053 2.18982 4.93753C2.39063 4.9441 2.57146 4.81676 2.63295 4.62548C2.69443 4.4342 2.62166 4.22534 2.45463 4.11367C1.87023 3.72298 1.48616 3.05607 1.48616 2.30101C1.48616 2.13356 1.48852 1.98411 1.49855 1.84862C2.85615 3.23056 4.71373 4.12074 6.78088 4.22481C6.93725 4.23269 7.08828 4.16686 7.18895 4.04696C7.28963 3.92705 7.32832 3.76691 7.29351 3.61427C7.25755 3.4566 7.23836 3.29427 7.23836 3.12772C7.23836 1.95228 8.19091 1 9.365 1C10.5993 1 11.5006 2.14351 11.5006 3.43222C11.5006 6.68852 9.0252 10.406 4.52622 10.406Z" fill="white"/>
</svg>
