<svg width="11" height="14" viewBox="0 0 11 14" fill="none" xmlns="http://www.w3.org/2000/svg">
<path fill-rule="evenodd" clip-rule="evenodd" d="M5.47498 0C3.47295 0 1.84998 1.62297 1.84998 3.625C1.84998 5.27788 2.95622 6.67238 4.46871 7.10851C3.27468 7.25401 2.25055 7.67634 1.47905 8.43667C0.49714 9.4044 0 10.845 0 12.7249C0 12.9873 0.21267 13.1999 0.475 13.1999C0.73734 13.1999 0.95 12.9873 0.95 12.7249C0.95 11.0049 1.40284 9.8456 2.14589 9.1133C2.89034 8.37963 4.00172 7.99999 5.47493 7.99999C6.94815 7.99999 8.05958 8.37963 8.80408 9.11331C9.54708 9.8456 9.99998 11.0049 9.99998 12.7249C9.99998 12.9873 10.2126 13.1999 10.475 13.1999C10.7373 13.2 10.95 12.9873 10.95 12.725C10.95 10.845 10.4528 9.4044 9.47088 8.43666C8.69938 7.67635 7.67523 7.25403 6.48123 7.10852C7.99368 6.6724 9.09998 5.27789 9.09998 3.625C9.09998 1.62297 7.47701 0 5.47498 0ZM2.79998 3.625C2.79998 2.14764 3.99762 0.95 5.47498 0.95C6.95234 0.95 8.14998 2.14764 8.14998 3.625C8.14998 5.10236 6.95234 6.3 5.47498 6.3C3.99762 6.3 2.79998 5.10236 2.79998 3.625Z" fill="white"/>
</svg>
